<svg width="32" height="32" viewBox="0 0 32 32" fill="none" xmlns="http://www.w3.org/2000/svg">
  <defs>
    <linearGradient id="bgGradient" x1="0%" y1="0%" x2="100%" y2="100%">
      <stop offset="0%" stop-color="#f97316"/>
      <stop offset="100%" stop-color="#dc2626"/>
    </linearGradient>
  </defs>
  
  <!-- Rounded square background -->
  <rect width="32" height="32" rx="6" fill="url(#bgGradient)"/>
  
  <!-- Crown icon (Lucide Crown - scaled to fit 32x32 with padding) -->
  <g transform="translate(4, 5) scale(1)">
    <path d="M11.562 3.266a.5.5 0 0 1 .876 0L15.39 8.87a1 1 0 0 0 1.516.294L21.183 5.5a.5.5 0 0 1 .798.519l-2.834 10.246a1 1 0 0 1-.956.734H5.81a1 1 0 0 1-.957-.734L2.02 6.02a.5.5 0 0 1 .798-.519l4.276 3.664a1 1 0 0 0 1.516-.294z" fill="white"/>
    <path d="M5 21h14" stroke="white" stroke-width="2" stroke-linecap="round"/>
  </g>
</svg>